<svg xmlns="http://www.w3.org/2000/svg" viewBox="0 0 639.35 457.51">
    <defs>
        <style>
            .cls-1 {
                isolation: isolate;
                margin: -100px;
            }

            .cls-2 {
                mix-blend-mode: overlay;
            }

            .cls-3 {

                fill: #49fcd4;
            }

            .cls-4 {
                fill: #e56399;
            }

            .cls-5 {
                fill: #ffc478;
            }

            .cls-6 {
                fill: #e56399;
            }

            .cls-7 {
                fill: #fff;
            }
        </style>
    </defs>
    <title>Effect</title>
    <g class="cls-1">
        <g id="Layer_2" data-name="Layer 2">
            <g id="OBJECTS">
                <g class="cls-2">
                    <path class="cls-3"
                        d="M570.5,267.84a28.5,28.5,0,0,1-2,2.17l-11.68,11.67a19.33,19.33,0,0,0,0,27.37l10.65,10.66a25.75,25.75,0,0,1,.63,35.78h0a25.76,25.76,0,0,1-35.71,1.91c-8.71-7.54-10.6-12.78-19.68-14.8-4.13-.92-8.47,1.61-11.69,4.83L500,348.52a9.92,9.92,0,0,0,0,14.07l25.65,25.66a24.46,24.46,0,1,1-34.59,34.59L456.5,388.28a19,19,0,0,0-26.79,0l-.2.2a18.65,18.65,0,0,0,0,26.38h0a25,25,0,0,1,0,35.32h0a25,25,0,0,1-35.33,0l-61.36-61.37a19.86,19.86,0,0,0-27.8-.27h0a19.85,19.85,0,0,0-.29,28.34l.63.63a16,16,0,0,1-.08,22.67h0a16,16,0,0,1-22.52-.08L138.71,296.05,56.48,213.83A46.35,46.35,0,0,1,122,148.28l18.83,18.83a10,10,0,0,0,14.08,0l7.83-7.84a10,10,0,0,0,0-14.08L129.58,112A16.42,16.42,0,0,1,152.8,88.79l30.62,30.63a9.93,9.93,0,0,0,14.08,0l3-3a10,10,0,0,0,0-14.08L162.12,63.92A28.92,28.92,0,1,1,203,23l68.92,68.93a10,10,0,0,0,14.08,0l1.18-1.18a10,10,0,0,0,0-14.08L275.87,65.35a17.33,17.33,0,1,1,24.51-24.51l74,74a10,10,0,0,0,14.08-14.08L369,81.3a18.9,18.9,0,0,1,26.73-26.74l172.82,172.8A30.14,30.14,0,0,1,570.5,267.84Z" />
                    <path class="cls-3"
                        d="M179.5,393.92h0a19.26,19.26,0,0,1-27.25,0l-53.2-53.2a19.26,19.26,0,0,1,0-27.25h0a19.27,19.27,0,0,1,27.24,0l53.21,53.2A19.28,19.28,0,0,1,179.5,393.92Z" />
                    <path class="cls-3"
                        d="M234.49,448.92h0a19.28,19.28,0,0,1-27.25,0L196.35,438a19.28,19.28,0,0,1,0-27.25h0a19.26,19.26,0,0,1,27.25,0l10.89,10.89A19.26,19.26,0,0,1,234.49,448.92Z" />
                    <path class="cls-3"
                        d="M353.93,43.78h0a19.26,19.26,0,0,1-27.25,0l-10.9-10.89a19.28,19.28,0,0,1,0-27.25h0a19.28,19.28,0,0,1,27.25,0l10.9,10.9A19.27,19.27,0,0,1,353.93,43.78Z" />
                    <path class="cls-3"
                        d="M560.14,169.8h0a19.26,19.26,0,0,1-27.25,0L522,158.91a19.26,19.26,0,0,1,0-27.25h0a19.28,19.28,0,0,1,27.25,0l10.89,10.89A19.28,19.28,0,0,1,560.14,169.8Z" />
                </g>
            </g>
        </g>
    </g>
</svg>